<svg xmlns="http://www.w3.org/2000/svg" width="95" height="95" viewBox="0 0 95 95"><g><g><path d="M85.57 8.616c-1.474-1.48-3.281-2.528-5.307-3.118 2.66-1.356 7.142-2.874 9.207-.801 1.63 1.638 1.226 5.245-.796 9.25-.588-2.036-1.631-3.852-3.105-5.331zM40.844 63.982c-2.023 2.033-4.984 4.228-8.8 6.524-4.961 2.985-10.832 5.812-16.128 8.072 2.31-5.465 5.177-11.458 8.212-16.5 2.22-3.689 4.345-6.564 6.316-8.543C75.356 8.526 72.695 10.848 75.421 8.658c3.023-.194 5.685.708 7.538 2.57 1.853 1.86 2.751 4.535 2.558 7.572-2.185 2.744.1.097-44.672 45.182zm37.743 23.289a2.554 2.554 0 0 1-.707 2.203 2.52 2.52 0 0 1-3.832-.305L51.757 58.25l19.03-19.114zm2.175-45.095a1.83 1.83 0 0 1 2.6 0 1.853 1.853 0 0 1 0 2.613l-6.824 6.852-.728-4.492zM35.547 90.204a2.261 2.261 0 0 1-3.465-.315l-7.664-11.12a125.883 125.883 0 0 0 7.814-4.093l3.886 13.276c.235.8.015 1.663-.57 2.252zM4.341 58.86a2.259 2.259 0 0 1 2.242-.575L19.8 62.19a125.919 125.919 0 0 0-4.076 7.848l-11.07-7.697a2.283 2.283 0 0 1-.314-3.48zm1.03-38.672a2.545 2.545 0 0 1-.303-3.85 2.524 2.524 0 0 1 2.191-.711l47.915 7.84-19.026 19.12zm44.192-9.355a1.836 1.836 0 0 1 2.604 0 1.85 1.85 0 0 1 0 2.61l-4.957 4.974-4.477-.732zm24.031-5.43C70.44 7.857 69.58 9.121 58.388 20.246l-6.709-1.098 3.079-3.092a5.554 5.554 0 0 0 0-7.836 5.497 5.497 0 0 0-7.802 0l-8.696 8.734-30.41-4.973a6.202 6.202 0 0 0-5.383 1.746c-2.704 2.716-2.337 7.21.748 9.452L33.52 45.223l-5.673 5.7c-1.945 1.953-3.991 4.639-6.094 7.993L7.62 54.742a5.929 5.929 0 0 0-5.88 1.505c-2.623 2.635-2.226 7.01.82 9.13l11.587 8.056c-2.017 4.471-3.243 7.704-3.3 7.854a1.853 1.853 0 0 0 .419 1.961c.514.517 1.28.678 1.953.421.148-.056 3.367-1.289 7.818-3.314l8.021 11.638c2.114 3.065 6.47 3.453 9.091.821a5.988 5.988 0 0 0 1.498-5.903L35.49 72.716c3.342-2.114 6.015-4.17 7.958-6.121l5.675-5.7 21.945 30.44c2.236 3.103 6.71 3.464 9.412.75a6.27 6.27 0 0 0 1.738-5.407l-4.952-30.543 8.695-8.734a5.556 5.556 0 0 0 0-7.837 5.495 5.495 0 0 0-7.8 0l-3.08 3.092-1.091-6.738c11.086-11.252 12.325-12.096 14.77-15.265l.009-.013c5.672-7.382 6.999-14.839 3.3-18.555-3.699-3.713-11.123-2.382-18.476 3.318z"/></g></g></svg>