<svg xmlns="http://www.w3.org/2000/svg" width="102" height="102" viewBox="0 0 102 102"><g><g><path fill="#353b50" d="M78.641 31.141c-1.74 0-2.868-1.28-3.269-1.821v-1.457a12.898 12.898 0 0 0 6.538 0v1.456c-.405.548-1.531 1.822-3.269 1.822zm-8.187-13.874v-1.465h7.514c1.427 0 2.79-.367 3.955-1.051a7.797 7.797 0 0 0 3.955 1.05h.96v1.466c0 4.04-3.675 7.328-8.192 7.328s-8.192-3.288-8.192-7.328zm8.192-13.989c4.517 0 8.192 3.672 8.192 8.185h-.96a3.984 3.984 0 0 1-2.797-1.157l-1.158-1.158-1.158 1.158a3.984 3.984 0 0 1-2.797 1.157h-7.514c0-4.513 3.675-8.185 8.192-8.185zm-11.47 44.253c-1.451-1.09-3.253-1.765-5.2-1.765h-1.984l-2.017-4-1.544 1.02a17.925 17.925 0 0 1-9.92 2.98h-6.924c-1.947 0-3.75.675-5.2 1.765v-2.406c0-8.613 7.066-15.623 15.748-15.623 4.207 0 8.163 1.625 11.137 4.575l1.74 1.726.367.122a5.507 5.507 0 0 1 3.796 5.226zm11.47-4.917c4.517 0 8.192 3.677 8.192 8.195h-7.513a3.982 3.982 0 0 1-2.797-1.159l-1.159-1.159-1.158 1.16a3.982 3.982 0 0 1-2.797 1.158h-.96c0-4.518 3.675-8.195 8.192-8.195zm0 19.668c-4.517 0-8.192-3.284-8.192-7.32v-1.465h.96c1.427 0 2.79-.366 3.955-1.049a7.803 7.803 0 0 0 3.956 1.05h7.513v1.464c0 4.036-3.675 7.32-8.192 7.32zm3.264 4.735c-.405.547-1.531 1.821-3.269 1.821-1.74 0-2.868-1.28-3.269-1.821V65.56a12.898 12.898 0 0 0 6.538 0zm12.897 6.659c2.098.634 3.507 2.546 3.507 4.757v11.629h-6.56v-11.59h-3.28v11.59h-6.561c-2.713 0-4.92 2.229-4.92 4.967v3.311H68.79V85.095h-3.28V98.34h-8.373L55.7 85.274l.97-2.94 3.432 2.077 1.933-9.762 8.6 2.004c3.742.873 6.357 4.189 6.357 8.066v2.031h3.28V84.72c0-5.427-3.659-10.071-8.899-11.293L66.8 72.361l6.22-1.884c.954 1.251 2.8 3.028 5.613 3.028 2.813 0 4.66-1.777 5.614-3.028zM13.08 90.062v-11.59H9.8v11.59H3.239v-11.63c0-2.21 1.409-4.122 3.507-4.756l10.561-3.199c.955 1.251 2.802 3.028 5.614 3.028 2.813 0 4.66-1.777 5.615-3.028l6.22 1.884-4.575 1.065c-5.24 1.222-8.9 5.866-8.9 11.293v2.032h3.28v-2.032c0-3.877 2.616-7.193 6.358-8.066l8.598-2.004 1.934 9.762 3.432-2.078.97 2.94-1.437 13.067h-8.373V85.095h-3.28V98.34h-8.201v-3.311c0-2.738-2.208-4.967-4.921-4.967zm13.1-24.502v1.456c-.406.548-1.533 1.822-3.273 1.822-1.74 0-2.868-1.276-3.274-1.821v-1.456a12.936 12.936 0 0 0 6.548-.001zM14.715 54.962v-1.465h7.518a7.812 7.812 0 0 0 3.957-1.049 7.812 7.812 0 0 0 3.958 1.05h.96v1.464c0 4.036-3.677 7.32-8.196 7.32-4.52 0-8.197-3.284-8.197-7.32zm8.197-12.348c4.52 0 8.197 3.677 8.197 8.195h-.961a3.985 3.985 0 0 1-2.798-1.159l-1.16-1.159-1.159 1.16a3.985 3.985 0 0 1-2.798 1.158h-7.518c0-4.518 3.677-8.195 8.197-8.195zm15.685 18.735a13.395 13.395 0 0 0 3.977 5.481v3.293l-1.547.364a8.373 8.373 0 0 0-1.013-.394l-10.545-3.227v-2.54a11.725 11.725 0 0 0 4.116-5.322 8.088 8.088 0 0 0 5.012 2.345zm-.94-2.345a4.774 4.774 0 0 1-2.023-1.416c-.921-1.11-1.355-2.553-1.224-4.06a5.222 5.222 0 0 1 3.177-4.358v8.386c0 .489.025.971.07 1.448zm22.95-1.183c0 5.172-4.408 9.378-9.83 9.378-5.423 0-9.832-4.206-9.832-9.378v-7.816h5.563c3.57 0 7.046-.85 10.152-2.474l1.296 2.474h2.652zm3.29 1.183c.044-.477.068-.96.068-1.448V49.17a5.223 5.223 0 0 1 3.177 4.357c.132 1.509-.302 2.95-1.223 4.06a4.774 4.774 0 0 1-2.022 1.417zM54.06 76.448l3.809-2.693 1.1.239-.991 4.668zm-1.032 7.141h-4.513l-1.012-1.992 3.27-1.286 3.267 1.286zm-4.175 3.278h3.837l1.35 11.473h-6.537zm-5.169-13.112l3.809 2.692-3.918 2.215-.99-4.667zm11.996-3.278v1.6l-4.909 3.307-4.908-3.307v-1.6a14.29 14.29 0 0 0 4.908.865 14.29 14.29 0 0 0 4.909-.865zm16.414-6.15v2.539l-10.552 3.227a7.955 7.955 0 0 0-1.015.394l-1.549-.364V66.83a13.424 13.424 0 0 0 3.981-5.48 8.097 8.097 0 0 0 5.016-2.346 11.716 11.716 0 0 0 4.119 5.323zM22.907 31.14c-1.74 0-2.868-1.276-3.274-1.821v-1.456a12.936 12.936 0 0 0 6.548-.001v1.456c-.407.548-1.534 1.822-3.274 1.822zm-8.192-13.874v-1.465h.96a7.806 7.806 0 0 0 3.958-1.051 7.806 7.806 0 0 0 3.957 1.05h7.519v1.466c0 4.04-3.678 7.328-8.197 7.328-4.52 0-8.197-3.288-8.197-7.328zm8.197-13.989c4.52 0 8.197 3.672 8.197 8.185H23.59a3.988 3.988 0 0 1-2.798-1.157l-1.16-1.158-1.158 1.158a3.988 3.988 0 0 1-2.799 1.157h-.96c0-4.513 3.677-8.185 8.197-8.185zm78.68 49.17V39.297a8.145 8.145 0 0 0-5.84-7.85L85.2 28.283v-2.49c2.97-2.075 4.918-5.513 4.918-9.4v-4.919C90.118 5.147 84.971 0 78.644 0c-6.328 0-11.475 5.147-11.475 11.473v4.917c0 3.89 1.949 7.327 4.918 9.401v2.49l-9.3 2.79c-3.49-3.12-7.936-4.847-12.656-4.847-4.702 0-9.003 1.722-12.328 4.56l-8.337-2.502v-2.49c2.969-2.075 4.918-5.513 4.918-9.4v-4.919C34.384 5.147 29.237 0 22.909 0c-6.327 0-11.474 5.147-11.474 11.473v4.917c0 3.89 1.949 7.327 4.917 9.401v2.49L5.801 31.446a8.148 8.148 0 0 0-5.841 7.85v13.152h3.278V39.297a4.884 4.884 0 0 1 3.505-4.71l10.555-3.166c.955 1.239 2.8 2.998 5.611 2.998s4.657-1.759 5.611-2.998l6.723 2.016a18.917 18.917 0 0 0-3.987 9.523c-2.093-2.224-5.057-3.624-8.347-3.624-6.327 0-11.474 5.147-11.474 11.473v4.917c0 3.89 1.949 7.327 4.917 9.401v2.49L5.801 70.782a8.148 8.148 0 0 0-5.841 7.85v14.791h19.67c.904 0 1.64.736 1.64 1.639v6.556h59.013v-6.556c0-.903.736-1.639 1.639-1.639h19.67v-14.79a8.145 8.145 0 0 0-5.84-7.85L85.2 67.619v-2.49c2.97-2.075 4.918-5.513 4.918-9.4V50.81c0-6.327-5.147-11.473-11.474-11.473-3.21 0-6.112 1.327-8.197 3.458v-1.554a8.813 8.813 0 0 0-4.504-7.691l7.09-2.128c.954 1.237 2.8 2.996 5.61 2.996 2.812 0 4.657-1.759 5.611-2.998l10.557 3.167a4.885 4.885 0 0 1 3.503 4.709v13.151z"/></g></g></svg>