<svg xmlns="http://www.w3.org/2000/svg" width="46" height="46" viewBox="0 0 46 46"><g><g><path  stroke-miterlimit="50" d="M22.997 45c12.446 0 22.536-9.85 22.536-22S35.443 1 22.997 1C10.55 1 .46 10.85.46 23s10.09 22 22.537 22z"/></g><g><path fill="#dcdcdc" d="M30.332 29.163c0 .419-.35.76-.779.76h-3.658v-5.401h1.868l.272-2.093h-2.14v-1.331c0-.609.156-1.027 1.05-1.027h1.13v-1.903c-.195-.038-.857-.076-1.674-.076-1.635 0-2.763.99-2.763 2.778v1.56H21.77v2.092h1.868v5.402h-6.85a.772.772 0 0 1-.778-.761V16.761c0-.419.35-.761.778-.761h12.726c.428 0 .779.342.779.76v12.403z"/></g></g></svg>