<svg xmlns="http://www.w3.org/2000/svg" width="98" height="99" viewBox="0 0 98 99"><g><g><g><path fill="#55596b" d="M61.234 84.407c-2.153-5.239-7.172-8.625-12.79-8.625h-.008c-5.616 0-10.636 3.385-12.788 8.622l-4.604 11.14H19.96l11.6-26.349h33.765l11.597 26.35H65.838zm19.689 12.127L67.874 66.879a1.628 1.628 0 0 0-1.49-.979H30.498c-.644 0-1.228.382-1.49.979L15.962 96.534a1.661 1.661 0 0 0 .122 1.566c.3.468.816.75 1.367.75h14.68a1.63 1.63 0 0 0 1.506-1.013l5.025-12.162c1.646-4.007 5.482-6.595 9.777-6.595.005-.002.005-.002.008 0 4.293 0 8.13 2.588 9.777 6.598l5.024 12.159a1.63 1.63 0 0 0 1.505 1.013h14.68c.553 0 1.068-.282 1.369-.75a1.66 1.66 0 0 0 .122-1.566z"/></g><g><path fill="#55596b" d="M66.607 58.91h-35.34c-.887 0-1.607.714-1.607 1.598v6.39h3.213v-4.793H65v4.793h3.213v-6.39a1.6 1.6 0 0 0-1.606-1.598z"/></g><g><path fill="#55596b" d="M58.696 35.18a1.64 1.64 0 0 0-1.581-1.23H40.749c-.742 0-1.391.506-1.583 1.23L32.62 60.053l3.164.856 6.222-23.643h13.85L62.08 60.91l3.162-.856z"/></g><g><path fill="#55596b" d="M50.49 44.128c-.205-.71-.839-1.198-1.554-1.198-.716 0-1.35.487-1.556 1.198l-4.87 16.808 3.11.965 3.316-11.441 3.315 11.441 3.11-.965z"/></g><g><path fill="#55596b" d="M55.036 34.617H41.845v-3.329h13.19zm1.637-6.657H40.198c-.91 0-1.648.746-1.648 1.664v6.657c0 .918.738 1.664 1.648 1.664h16.475c.911 0 1.648-.746 1.648-1.664v-6.657c0-.918-.737-1.664-1.648-1.664z"/></g><g><path fill="#55596b" d="M53.654 10.838c-.358-2.765-2.6-4.848-5.21-4.848h-.009c-2.611 0-4.853 2.083-5.21 4.82L40.53 29.436l3.134.518 2.699-18.65c.143-1.1 1.034-1.928 2.075-1.928h.004c1.038 0 1.93.828 2.077 1.953l2.695 18.625 3.133-.518z"/></g><g><path fill="#55596b" d="M47.45 0h2.966v7.988H47.45z"/></g><g><path fill="#55596b" d="M43.5 12.98h7.908v2.995H43.5z"/></g><g><path fill="#55596b" d="M0 94.86h37.565v2.995H0z"/></g><g><path fill="#55596b" d="M60.3 94.86h22.736v2.995H60.3z"/></g><g><path fill="#55596b" d="M3.295 43.56V23.34h23.056v20.22zM28.01 19.97H1.648c-.91 0-1.648.755-1.648 1.685v23.59c0 .93.738 1.684 1.648 1.684h26.36c.91 0 1.648-.755 1.648-1.685v-23.59c0-.93-.738-1.684-1.647-1.684z"/></g><g><path fill="#55596b" d="M8.918 16.312h11.81l3.293 3.321H5.625zm20.255 3.812l-6.59-6.656a1.635 1.635 0 0 0-1.165-.488H8.238c-.436 0-.857.175-1.165.488l-6.59 6.656a1.677 1.677 0 0 0-.358 1.814 1.65 1.65 0 0 0 1.523 1.027h26.36a1.65 1.65 0 0 0 1.523-1.027 1.676 1.676 0 0 0-.358-1.814z"/></g><g><path fill="#55596b" d="M15.326 36.705c-1.772 0-3.213-1.457-3.213-3.25 0-1.792 1.44-3.25 3.213-3.25 1.771 0 3.212 1.458 3.212 3.25 0 1.793-1.44 3.25-3.212 3.25zm0-9.745c-3.544 0-6.426 2.91-6.426 6.49s2.882 6.49 6.426 6.49c3.543 0 6.425-2.91 6.425-6.49s-2.882-6.49-6.425-6.49z"/></g><g><path fill="#55596b" d="M25.062 42.93H5.574c-.896 0-1.624.737-1.624 1.645v54.27h3.248V46.22h16.24v36.18h3.248V44.574c0-.907-.727-1.644-1.624-1.644z"/></g><g><path fill="#55596b" d="M19.573 12.643h-9.49V9.322h9.49zm1.582-6.653H8.502c-.873 0-1.582.746-1.582 1.664v6.657c0 .918.709 1.664 1.582 1.664h12.653c.873 0 1.582-.746 1.582-1.664V7.654c0-.918-.709-1.664-1.582-1.664z"/></g><g><path fill="#55596b" d="M12.32 6.657l2.508-2.64 2.509 2.64zm9.953.487L15.947.488a1.525 1.525 0 0 0-2.237 0L7.384 7.144a1.728 1.728 0 0 0-.344 1.814c.246.62.823 1.027 1.462 1.027h12.653c.639 0 1.216-.406 1.461-1.027a1.727 1.727 0 0 0-.343-1.814z"/></g><g><path fill="#55596b" d="M9.89 48.93h2.966v9.985H9.89z"/></g><g><path fill="#55596b" d="M16.81 48.93h2.966v9.985H16.81z"/></g><g><path fill="#55596b" d="M9.89 88.87h2.966v9.985H9.89z"/></g><g><path fill="#55596b" d="M16.81 88.87h2.966v9.985H16.81z"/></g><g><path fill="#55596b" d="M9.89 75.88h2.966v9.985H9.89z"/></g><g><path fill="#55596b" d="M16.81 75.88h2.966v9.985H16.81z"/></g><g><path fill="#55596b" d="M9.89 62.9h2.966v9.985H9.89z"/></g><g><path fill="#55596b" d="M16.81 62.9h2.966v9.985H16.81z"/></g><g><path fill="#55596b" d="M93.249 9.98H66.888c-.912 0-1.648.735-1.648 1.64v55.773h3.295V13.26h23.066v62.334h-19.77v3.28h21.418c.91 0 1.647-.733 1.647-1.64V11.62c0-.905-.736-1.64-1.647-1.64z"/></g><g><path fill="#55596b" d="M63.27 22.97h32.622v2.995H63.27z"/></g><g><path fill="#55596b" d="M79.573 15.98c-.82 0-1.483.746-1.483 1.664v6.657c0 .918.663 1.664 1.483 1.664.82 0 1.483-.746 1.483-1.664v-6.657c0-.918-.663-1.664-1.483-1.664z"/></g><g><path fill="#55596b" d="M72.663 15.98c-.82 0-1.483.746-1.483 1.664v6.657c0 .918.663 1.664 1.483 1.664.82 0 1.483-.746 1.483-1.664v-6.657c0-.918-.663-1.664-1.483-1.664z"/></g><g><path fill="#55596b" d="M86.493 15.98c-.82 0-1.483.746-1.483 1.664v6.657c0 .918.663 1.664 1.483 1.664.82 0 1.483-.746 1.483-1.664v-6.657c0-.918-.663-1.664-1.483-1.664z"/></g><g><path fill="#55596b" d="M87.699 9.735h-16.24v-6.49h16.24zM89.323 0H69.834c-.898 0-1.624.727-1.624 1.622v9.736c0 .895.726 1.622 1.624 1.622h19.489c.898 0 1.624-.727 1.624-1.622V1.622C90.947.727 90.22 0 89.323 0z"/></g><g><path fill="#55596b" d="M76.613 5.99c-.82 0-1.483.783-1.483 1.747v3.495c0 .965.663 1.747 1.483 1.747.82 0 1.483-.782 1.483-1.747V7.738c0-.965-.663-1.748-1.483-1.748z"/></g><g><path fill="#55596b" d="M83.533 6.99c-.82 0-1.483.746-1.483 1.664v1.664c0 .919.663 1.664 1.483 1.664.82 0 1.483-.745 1.483-1.664V8.654c0-.918-.663-1.664-1.483-1.664z"/></g><g><path fill="#55596b" d="M96.202 75.88H71.18v3.28h23.354v19.685h3.337V77.52c0-.907-.746-1.64-1.669-1.64z"/></g><g><path fill="#55596b" d="M80.073 81.88c-2.725 0-4.943 2.24-4.943 4.992v2.547h3.295v-2.547c0-.918.738-1.664 1.648-1.664.91 0 1.647.746 1.647 1.664v9.985h3.295v-9.985c0-2.752-2.217-4.992-4.942-4.992z"/></g><g><path fill="#55596b" d="M80.07 94.86h15.817v2.995H80.07z"/></g><g><path fill="#55596b" d="M92.923 81.88c-2.725 0-4.943 2.24-4.943 4.992v9.985h3.295v-9.985c0-.918.738-1.664 1.648-1.664.91 0 1.647.746 1.647 1.664v9.985h3.295v-9.985c0-2.752-2.217-4.992-4.942-4.992z"/></g><g><path fill="#55596b" d="M63.27 35.95h32.622v2.995H63.27z"/></g><g><path fill="#55596b" d="M79.573 28.96c-.82 0-1.483.746-1.483 1.664v6.657c0 .918.663 1.664 1.483 1.664.82 0 1.483-.746 1.483-1.664v-6.657c0-.918-.663-1.664-1.483-1.664z"/></g><g><path fill="#55596b" d="M72.663 28.96c-.82 0-1.483.746-1.483 1.664v6.657c0 .918.663 1.664 1.483 1.664.82 0 1.483-.746 1.483-1.664v-6.657c0-.918-.663-1.664-1.483-1.664z"/></g><g><path fill="#55596b" d="M86.493 28.96c-.82 0-1.483.746-1.483 1.664v6.657c0 .918.663 1.664 1.483 1.664.82 0 1.483-.746 1.483-1.664v-6.657c0-.918-.663-1.664-1.483-1.664z"/></g><g><path fill="#55596b" d="M63.27 49.92h32.622v2.995H63.27z"/></g><g><path fill="#55596b" d="M79.573 42.93c-.82 0-1.483.746-1.483 1.664v6.657c0 .92.663 1.664 1.483 1.664.82 0 1.483-.744 1.483-1.664v-6.657c0-.918-.663-1.664-1.483-1.664z"/></g><g><path fill="#55596b" d="M72.663 42.93c-.82 0-1.483.746-1.483 1.664v6.657c0 .92.663 1.664 1.483 1.664.82 0 1.483-.744 1.483-1.664v-6.657c0-.918-.663-1.664-1.483-1.664z"/></g><g><path fill="#55596b" d="M86.493 42.93c-.82 0-1.483.746-1.483 1.664v6.657c0 .92.663 1.664 1.483 1.664.82 0 1.483-.744 1.483-1.664v-6.657c0-.918-.663-1.664-1.483-1.664z"/></g><g><path fill="#55596b" d="M66.23 62.9h29.656v2.995H66.23z"/></g><g><path fill="#55596b" d="M79.573 55.92c-.82 0-1.483.744-1.483 1.664v6.657c0 .92.663 1.664 1.483 1.664.82 0 1.483-.744 1.483-1.664v-6.657c0-.92-.663-1.664-1.483-1.664z"/></g><g><path fill="#55596b" d="M72.663 55.92c-.82 0-1.483.744-1.483 1.664v6.657c0 .92.663 1.664 1.483 1.664.82 0 1.483-.744 1.483-1.664v-6.657c0-.92-.663-1.664-1.483-1.664z"/></g><g><path fill="#55596b" d="M86.493 55.92c-.82 0-1.483.744-1.483 1.664v6.657c0 .92.663 1.664 1.483 1.664.82 0 1.483-.744 1.483-1.664v-6.657c0-.92-.663-1.664-1.483-1.664z"/></g><g><path fill="#55596b" d="M69.2 75.88h26.69v2.995H69.2z"/></g><g><path fill="#55596b" d="M79.573 68.9c-.82 0-1.483.744-1.483 1.664v6.657c0 .92.663 1.664 1.483 1.664.82 0 1.483-.744 1.483-1.664v-6.657c0-.92-.663-1.664-1.483-1.664z"/></g><g><path fill="#55596b" d="M72.663 68.9c-.82 0-1.483.744-1.483 1.664v6.657c0 .92.663 1.664 1.483 1.664.82 0 1.483-.744 1.483-1.664v-6.657c0-.92-.663-1.664-1.483-1.664z"/></g><g><path fill="#55596b" d="M86.493 68.9c-.82 0-1.483.744-1.483 1.664v6.657c0 .92.663 1.664 1.483 1.664.82 0 1.483-.744 1.483-1.664v-6.657c0-.92-.663-1.664-1.483-1.664z"/></g></g></g></svg>