<svg xmlns="http://www.w3.org/2000/svg" width="47" height="46" viewBox="0 0 47 46"><g><g><path stroke-miterlimit="50" d="M23.467 45c12.446 0 22.536-9.85 22.536-22S35.913 1 23.467 1C11.02 1 .93 10.85.93 23s10.09 22 22.537 22z"/></g><g><path fill="#dcdcdc" d="M25.173 22.464c-.118-.306-.274-.573-.392-.88 2.426-.956 3.405-2.37 3.405-2.37a6.083 6.083 0 0 1 1.408 3.748c-.117-.039-2.191-.46-4.304-.192-.04-.114-.078-.19-.117-.306zm.508 1.225c2.001-.306 3.688.229 3.845.267-.314 1.683-1.295 3.137-2.668 4.017-.078-.345-.392-2.104-1.177-4.284zM19.5 27.636l.078.076c-.04 0-.04-.038-.078-.076zm.156.115s1.174-2.492 4.813-3.756h.04c.86 2.184 1.212 4.024 1.29 4.56-.704.307-1.525.46-2.386.46a6.32 6.32 0 0 1-3.804-1.28c.026.016.047.016.047.016zm-.047-.015a6.436 6.436 0 0 0 0 0zM17.308 23v-.191c.117 0 3.13.076 6.3-.842.156.344.351.689.508 1.033-.078.038-.157.038-.235.076-3.326 1.033-5.008 3.94-5.008 3.94A5.875 5.875 0 0 1 17.307 23zm5.751-1.95c-2.934.764-5.478.726-5.673.726.43-1.836 1.721-3.366 3.404-4.17.078.115 1.213 1.607 2.27 3.443zm-1.095-3.864c0 .038-.04.038 0 0 0 .038 0 .038 0 0zm5.478 1.339c0 .038-.9 1.338-3.209 2.18-1.056-1.874-2.19-3.366-2.308-3.48a6.9 6.9 0 0 1 1.487-.192c1.565 0 2.974.574 4.03 1.492zm1.917.573a7.636 7.636 0 0 0-.86-1.032c-.313-.306-.666-.612-1.057-.842a7.366 7.366 0 0 0-1.213-.65c-.43-.191-.9-.306-1.33-.421-.47-.076-.94-.153-1.448-.153-.47 0-.978.038-1.448.153-.47.077-.9.23-1.33.42-.43.192-.822.383-1.213.651a7.74 7.74 0 0 0-1.057.842c-.313.306-.626.65-.86 1.032-.275.383-.47.765-.666 1.186-.196.42-.313.88-.43 1.3-.079.46-.157.919-.157 1.416 0 .459.04.956.157 1.415.078.46.234.88.43 1.3.196.422.391.804.665 1.187.274.382.548.726.861 1.032.313.306.665.612 1.057.842.39.268.782.459 1.213.65.43.191.9.306 1.33.421.47.115.94.153 1.448.153.47 0 .978-.038 1.448-.153.47-.077.9-.23 1.33-.42.43-.192.822-.383 1.213-.651a7.74 7.74 0 0 0 1.057-.842c.313-.306.626-.65.86-1.032.274-.383.47-.765.666-1.186.195-.42.313-.88.43-1.3.078-.46.157-.919.157-1.416 0-.459-.04-.956-.157-1.415-.117-.421-.235-.88-.43-1.3a7.102 7.102 0 0 0-.666-1.187z"/></g></g></svg>