<svg xmlns="http://www.w3.org/2000/svg" width="99" height="99" viewBox="0 0 99 99"><g><g><g><path fill="#55596b" d="M95.017 83.96H50.676v-3.156c4.366 0 7.918-3.54 7.918-7.892 0-4.35-3.552-7.891-7.918-7.891v-2.623a4.74 4.74 0 0 1 3.9-4.66l7.31-1.322 1.924 11.519 4.202-3.35 1.587 2.372-1.615 9.655 4.863 4.845 4.863-4.847-1.616-9.654 1.588-2.372 4.201 3.349 1.925-11.519 7.308 1.323a4.743 4.743 0 0 1 3.901 4.66zM3.167 62.397a4.74 4.74 0 0 1 3.9-4.658l7.31-1.323 1.925 11.519 4.2-3.35 1.588 2.372-1.615 9.655 4.863 4.845 4.863-4.847-1.615-9.654 1.587-2.372 4.201 3.349L36.3 56.414l7.307 1.323a4.743 4.743 0 0 1 3.902 4.66v6.464l1.98-.51c.459-.118.835-.174 1.187-.174 2.619 0 4.75 2.125 4.75 4.735 0 2.61-2.131 4.735-4.75 4.735-.352 0-.728-.055-1.188-.172l-1.98-.511v6.996H3.169zm22.171-10c1.68 0 3.283-.334 4.75-.93v1.721l-4.75 3.557-4.75-3.557v-1.721c1.467.596 3.07.93 4.75.93zM15.836 39.78v-6.315h1.327c1.847 0 3.586-.59 5.008-1.618v1.618h1.327c1.846 0 3.585-.59 5.007-1.618v1.618h1.327c1.847 0 3.586-.59 5.008-1.618v7.933c0 5.224-4.262 9.472-9.502 9.472-5.24 0-9.502-4.248-9.502-9.472zm-6.334-3.155c0-2.056 1.328-3.794 3.167-4.448v7.607c0 .442.024.88.068 1.31-1.874-.636-3.235-2.388-3.235-4.47zm15.212-25.249a15.14 15.14 0 0 1 10.757 4.44l1.68 1.676.356.117a5.345 5.345 0 0 1 3.667 5.073v7.676c-.925-.697-1.99-1.22-3.167-1.458v-3.317H34.84v1.273a5.339 5.339 0 0 1-4.713 3.44 8.484 8.484 0 0 0 1.464-2.634l-3.004-.999a5.348 5.348 0 0 1-4.793 3.634 8.484 8.484 0 0 0 1.464-2.635l-3.003-.999a5.365 5.365 0 0 1-5.092 3.656h-1.327v-4.736H12.67V28.9c-1.177.24-2.242.76-3.167 1.458V26.54c0-8.36 6.825-15.164 15.212-15.164zm13.225 29.717c.044-.43.068-.867.068-1.31v-7.606c1.833.654 3.157 2.392 3.157 4.448 0 2.081-1.357 3.833-3.225 4.468zM27.924 58.746l4.144-3.097 1.117.202-1.047 6.254zm-1.843 6.282h-1.476l-1.62-2.421 2.358-1.88 2.356 1.88zm-7.473-9.379l4.144 3.097-4.214 3.359-1.047-6.254zm8.201 19.88l-1.471 1.467-1.472-1.467 1.23-7.356h.484zm46.038-23.131c1.68 0 3.283-.335 4.75-.931v1.721l-4.75 3.557-4.751-3.557v-1.721c1.467.596 3.07.93 4.75.93zm-9.502-19.08a9.31 9.31 0 0 0 4.945-2.548l.136-.135a31.89 31.89 0 0 0 13.096 2.83h.836v6.314c0 5.224-4.263 9.472-9.506 9.472s-9.507-4.248-9.507-9.472zm-6.335 3.306c0-2.056 1.329-3.794 3.168-4.448v7.607c0 .442.024.88.068 1.31-1.874-.636-3.236-2.388-3.236-4.47zm15.837-23.67c8.732 0 15.836 7.08 15.836 15.785v1.62c-.925-.698-1.99-1.22-3.167-1.459v-3.318h-3.168v4.736h-.835a28.607 28.607 0 0 1-12.707-2.992l-1.022-.508-1.736 1.73c-.747.746-1.692 1.254-2.703 1.53v-4.496h-3.167V28.9c-1.177.24-2.243.76-3.168 1.458V28.74c0-8.704 7.104-15.786 15.837-15.786zm12.6 28.138c.045-.43.069-.867.069-1.31v-7.606c1.833.654 3.157 2.392 3.157 4.448 0 2.081-1.358 3.833-3.225 4.468zM75.433 58.746l4.145-3.097 1.117.202-1.047 6.254zm-1.843 6.282h-1.475l-1.62-2.421 2.358-1.88 2.356 1.88zm-7.473-9.379l4.145 3.097-4.214 3.359L65 55.85zm8.202 19.88l-1.471 1.467-1.472-1.467 1.23-7.356h.484zm6.447-22.867v-3.046a12.681 12.681 0 0 0 3.843-5.172c4.045-.349 7.242-3.702 7.242-7.822v-7.89c0-10.44-8.524-18.934-19.003-18.934-10.48 0-19.004 8.494-19.004 18.935v7.89c0 4.12 3.198 7.472 7.243 7.821a12.657 12.657 0 0 0 3.843 5.172v3.046l-10.921 1.979c-2.038.37-3.753 1.51-4.917 3.068-1.164-1.558-2.879-2.7-4.917-3.068l-10.918-1.979v-3.046a12.681 12.681 0 0 0 3.843-5.172c4.045-.349 7.242-3.702 7.242-7.822V22.677a8.492 8.492 0 0 0-5.465-7.933l-1.164-1.16A18.293 18.293 0 0 0 24.714 8.22c-10.134 0-18.38 8.216-18.38 18.313v10.09c0 4.12 3.198 7.472 7.243 7.821a12.657 12.657 0 0 0 3.843 5.172v3.046L6.5 54.641c-3.765.684-6.5 3.947-6.5 7.761v24.714h98.185V62.402c0-3.814-2.735-7.077-6.501-7.761z"/></g><g><path fill="#55596b" d="M0 95.33h3.273v3.287H0z"/></g><g><path fill="#55596b" d="M6.55 95.33h3.273v3.287H6.55z"/></g><g><path fill="#55596b" d="M13.09 95.33h3.273v3.287H13.09z"/></g><g><path fill="#55596b" d="M48.182 92.161l2.823 3.522H19.64v2.935h37.637L50.691 90.4z"/></g><g><path fill="#55596b" d="M94.91 0h3.273v3.287H94.91z"/></g><g><path fill="#55596b" d="M88.37 0h3.273v3.287H88.37z"/></g><g><path fill="#55596b" d="M81.82 0h3.273v3.287H81.82z"/></g><g><path fill="#55596b" d="M50.005 6.457l-2.822-3.522h31.364V0H40.91l6.587 8.218z"/></g></g></g></svg>