<svg xmlns="http://www.w3.org/2000/svg" width="47" height="46" viewBox="0 0 47 46"><g><g><path d="M31.85 16.268c-.683.4-1.413.713-2.234.847-.639-.67-1.55-1.115-2.554-1.115a3.522 3.522 0 0 0-3.512 3.522c0 .268.045.535.091.803-2.919-.134-5.473-1.56-7.206-3.656-.32.535-.456 1.114-.456 1.783 0 1.204.638 2.274 1.55 2.943-.593 0-1.094-.178-1.596-.446v.045a3.475 3.475 0 0 0 2.828 3.433c-.274.089-.593.134-.912.134-.228 0-.457 0-.639-.045a3.566 3.566 0 0 0 3.284 2.452 6.982 6.982 0 0 1-4.333 1.516c-.274 0-.547 0-.821-.045A9.986 9.986 0 0 0 20.722 30c6.431 0 9.989-5.35 9.989-9.987v-.446a6.693 6.693 0 0 0 1.733-1.828c-.639.267-1.323.49-2.007.535.593-.49 1.14-1.16 1.414-2.006z"/></g><g><path stroke-miterlimit="50" d="M23.537 45c12.446 0 22.536-9.85 22.536-22S35.983 1 23.537 1C11.09 1 1 10.85 1 23s10.09 22 22.537 22z"/></g></g></svg>